<svg width="154" height="31" viewBox="0 0 154 31" fill="none" xmlns="http://www.w3.org/2000/svg">
<path d="M15.0033 7.77908C10.7468 7.77908 7.31344 11.2132 7.31344 15.4707C7.31344 19.7282 10.7468 23.1623 15.0033 23.1623C19.2599 23.1623 22.6933 19.7282 22.6933 15.4707C22.6933 11.2132 19.2599 7.77908 15.0033 7.77908ZM15.0033 20.4713C12.2527 20.4713 10.0039 18.2287 10.0039 15.4707C10.0039 12.7127 12.246 10.4701 15.0033 10.4701C17.7607 10.4701 20.0028 12.7127 20.0028 15.4707C20.0028 18.2287 17.754 20.4713 15.0033 20.4713ZM24.8015 7.46446C24.8015 8.46189 23.9983 9.2585 23.0078 9.2585C22.0106 9.2585 21.2142 8.4552 21.2142 7.46446C21.2142 6.47372 22.0173 5.67041 23.0078 5.67041C23.9983 5.67041 24.8015 6.47372 24.8015 7.46446ZM29.8946 9.28527C29.7808 6.88206 29.232 4.75331 27.4718 2.99943C25.7184 1.24556 23.5901 0.696632 21.1874 0.576137C18.7111 0.435559 11.2889 0.435559 8.8126 0.576137C6.41662 0.689938 4.28834 1.23886 2.52817 2.99274C0.767987 4.74662 0.225878 6.87537 0.10541 9.27858C-0.0351366 11.7554 -0.0351366 19.1793 0.10541 21.6561C0.219186 24.0593 0.767987 26.1881 2.52817 27.942C4.28834 29.6959 6.40993 30.2448 8.8126 30.3653C11.2889 30.5058 18.7111 30.5058 21.1874 30.3653C23.5901 30.2515 25.7184 29.7025 27.4718 27.942C29.2253 26.1881 29.7741 24.0593 29.8946 21.6561C30.0351 19.1793 30.0351 11.7621 29.8946 9.28527ZM26.6955 24.3137C26.1735 25.6258 25.1629 26.6366 23.8444 27.1654C21.8701 27.9487 17.1852 27.7679 15.0033 27.7679C12.8215 27.7679 8.12995 27.942 6.1623 27.1654C4.85053 26.6433 3.83993 25.6325 3.31121 24.3137C2.52817 22.3389 2.70887 17.653 2.70887 15.4707C2.70887 13.2884 2.53486 8.59577 3.31121 6.62768C3.83324 5.31562 4.84384 4.3048 6.1623 3.77596C8.13664 2.99274 12.8215 3.17348 15.0033 3.17348C17.1852 3.17348 21.8767 2.99943 23.8444 3.77596C25.1562 4.2981 26.1668 5.30893 26.6955 6.62768C27.4785 8.60247 27.2978 13.2884 27.2978 15.4707C27.2978 17.653 27.4785 22.3456 26.6955 24.3137Z" fill="#857885"/>
<path d="M130.715 30.4707H124.495V10.4417H130.715V30.4707ZM127.602 7.70954C125.613 7.70954 124 6.06222 124 4.07338C124 2.08454 125.613 0.470703 127.602 0.470703C129.59 0.470703 131.204 2.08454 131.204 4.07338C131.204 6.06222 129.59 7.70954 127.602 7.70954ZM153.993 30.4707H147.787V20.7207C147.787 18.397 147.74 15.4171 144.553 15.4171C141.32 15.4171 140.824 17.9417 140.824 20.5533V30.4707H134.611V10.4417H140.577V13.1738H140.664C141.494 11.6002 143.522 9.93945 146.549 9.93945C152.842 9.93945 154 14.0845 154 19.4685V30.4707H153.993Z" fill="#857885"/>
<path d="M88.9163 8.70115C88.9354 8.97457 88.9354 9.24806 88.9354 9.52148C88.9354 17.8613 82.7488 27.4707 71.4417 27.4707C67.9581 27.4707 64.7221 26.4355 62 24.6387C62.4949 24.6973 62.9708 24.7168 63.4848 24.7168C66.3591 24.7168 69.0051 23.7207 71.118 22.0215C68.415 21.9629 66.1497 20.1465 65.3693 17.6465C65.75 17.705 66.1307 17.7441 66.5305 17.7441C67.0825 17.7441 67.6346 17.666 68.1485 17.5293C65.3312 16.9433 63.2182 14.4043 63.2182 11.3379V11.2598C64.0367 11.7285 64.9886 12.0215 65.9974 12.0605C64.3413 10.9277 63.2563 8.99411 63.2563 6.8066C63.2563 5.63474 63.5608 4.56052 64.0939 3.62302C67.1205 7.45114 71.6701 9.9511 76.7715 10.2246C76.6764 9.75583 76.6193 9.2676 76.6193 8.7793C76.6193 5.3027 79.3604 2.4707 82.7678 2.4707C84.5381 2.4707 86.137 3.23242 87.2602 4.46289C88.6497 4.18947 89.9822 3.6621 91.1625 2.93946C90.7055 4.40433 89.7348 5.6348 88.4594 6.416C89.6967 6.27935 90.896 5.92771 92 5.43947C91.1626 6.68942 90.1156 7.80266 88.9163 8.70115Z" fill="#857885"/>
</svg>
