<svg width="198" height="49" viewBox="0 0 198 49" fill="none" xmlns="http://www.w3.org/2000/svg">
<g clip-path="url(#clip0_19_158)">
<path d="M38.653 23.9008C38.653 25.0504 38.294 26.1717 37.6255 27.1096C36.9571 28.0475 36.0122 28.7557 34.9215 29.1363C34.6277 29.1983 34.3362 29.2751 34.0481 29.3619C32.052 29.9809 30.2935 31.1911 29.0075 32.8308C27.7215 34.4705 26.9694 36.4616 26.8516 38.538C26.8288 38.9589 26.8314 39.3808 26.8596 39.8014C26.7514 40.7919 26.3769 41.7351 25.7756 42.5319C25.1743 43.3287 24.3683 43.9498 23.4423 44.3297C22.5163 44.7097 21.5045 44.8346 20.5133 44.6913C19.522 44.548 18.5878 44.1418 17.8089 43.5153C17.03 42.8889 16.4351 42.0654 16.0867 41.1313C15.7383 40.1972 15.6493 39.187 15.829 38.2068C16.0088 37.2267 16.4506 36.3128 17.1081 35.5611C17.7656 34.8095 18.6145 34.2479 19.5656 33.9353C19.7818 33.8864 19.9973 33.8296 20.2121 33.7649C22.2705 33.1495 24.0826 31.9067 25.3927 30.212C26.7029 28.5172 27.4449 26.456 27.514 24.3193C27.5223 24.0598 27.5223 23.8003 27.514 23.5409C27.4202 21.4404 26.6766 19.4199 25.3849 17.7556C24.0932 16.0912 22.3164 14.8641 20.2971 14.2419C20.0419 14.1618 19.7833 14.0941 19.5236 14.0366C18.5742 13.7099 17.7311 13.1342 17.0834 12.3703C16.4358 11.6064 16.0076 10.6827 15.8442 9.69673C15.6808 8.71079 15.7882 7.69925 16.155 6.76901C16.5219 5.83876 17.1346 5.02435 17.9283 4.41184C18.7221 3.79933 19.6675 3.41146 20.6646 3.28922C21.6617 3.16698 22.6735 3.31492 23.593 3.71739C24.5126 4.11986 25.3057 4.76192 25.8887 5.57573C26.4717 6.38953 26.8228 7.34486 26.905 8.34076C26.8947 8.62053 26.897 8.90482 26.905 9.1812C27.008 11.2883 27.7645 13.312 29.0706 14.9743C30.3767 16.6365 32.1682 17.8557 34.199 18.4644C34.4024 18.5253 34.6065 18.5791 34.8114 18.6257C35.9289 18.9902 36.9021 19.6965 37.592 20.6438C38.2819 21.5911 38.6532 22.731 38.653 23.9008Z" fill="white"/>
<path d="M0.323936 38.0326C0.39852 36.8869 0.828398 35.7924 1.55437 34.8998C2.28033 34.0072 3.26668 33.3604 4.37756 33.0486C4.68001 33.0057 4.97793 32.9485 5.27131 32.8771C7.51536 32.3367 9.51073 31.0596 10.9351 29.2521C12.3594 27.4447 13.1295 25.2124 13.1211 22.9159C13.293 21.9348 13.7272 21.0178 14.3783 20.2612C15.0294 19.5046 15.8733 18.9363 16.8214 18.6159C17.7694 18.2956 18.7867 18.235 19.7664 18.4406C20.7462 18.6462 21.6521 19.1104 22.3893 19.7844C23.1265 20.4583 23.6676 21.3173 23.9559 22.271C24.2441 23.2248 24.269 24.2381 24.0277 25.2047C23.7864 26.1712 23.2879 27.0554 22.5846 27.7642C21.8813 28.4731 20.9991 28.9805 20.0306 29.2333C19.8038 29.2694 19.5788 29.3134 19.3558 29.3653C17.2621 29.8501 15.3743 30.9765 13.9587 32.5857C12.5432 34.1948 11.6714 36.2054 11.4663 38.3338C11.4413 38.5842 11.4277 38.8358 11.4221 39.0873C11.3206 39.8749 11.0505 40.6317 10.6299 41.3066C10.2093 41.9814 9.64802 42.5587 8.98394 42.9993C8.31986 43.44 7.56845 43.7338 6.78045 43.861C5.99245 43.9881 5.18619 43.9456 4.41612 43.7363C4.21764 43.6618 4.01802 43.5941 3.815 43.5343C2.72483 43.0996 1.80044 42.3337 1.17358 41.3458C0.546722 40.3579 0.24938 39.1984 0.323936 38.0326Z" fill="white"/>
<path d="M59.8848 18.207C62.3105 18.207 64.1973 19.0859 65.5449 20.8438C66.9043 22.6016 67.584 25.0684 67.584 28.2441C67.584 31.4316 66.8984 33.916 65.5273 35.6973C64.1562 37.4668 62.252 38.3516 59.8145 38.3516C57.3535 38.3516 55.4434 37.4668 54.084 35.6973H53.8027L53.0469 38H49.9531V10.6484H54.084V17.1523C54.084 17.6328 54.0605 18.3477 54.0137 19.2969C53.9668 20.2461 53.9316 20.8496 53.9082 21.1074H54.084C55.3965 19.1738 57.3301 18.207 59.8848 18.207ZM58.8125 21.582C57.1484 21.582 55.9473 22.0742 55.209 23.0586C54.4824 24.0312 54.1074 25.666 54.084 27.9629V28.2441C54.084 30.6113 54.459 32.3281 55.209 33.3945C55.959 34.4492 57.1836 34.9766 58.8828 34.9766C60.3477 34.9766 61.4551 34.3965 62.2051 33.2363C62.9668 32.0762 63.3477 30.4004 63.3477 28.209C63.3477 23.791 61.8359 21.582 58.8125 21.582ZM76.5137 38H72.3828V10.6484H76.5137V38ZM86.5684 38H82.4375V18.5586H86.5684V38ZM82.1914 13.4082C82.1914 12.6699 82.3906 12.1016 82.7891 11.7031C83.1992 11.3047 83.7793 11.1055 84.5293 11.1055C85.2559 11.1055 85.8184 11.3047 86.2168 11.7031C86.627 12.1016 86.832 12.6699 86.832 13.4082C86.832 14.1113 86.627 14.668 86.2168 15.0781C85.8184 15.4766 85.2559 15.6758 84.5293 15.6758C83.7793 15.6758 83.1992 15.4766 82.7891 15.0781C82.3906 14.668 82.1914 14.1113 82.1914 13.4082ZM109.596 38H105.447V26.0469C105.447 24.5469 105.143 23.4277 104.533 22.6895C103.936 21.9512 102.98 21.582 101.668 21.582C99.9219 21.582 98.6445 22.0977 97.8359 23.1289C97.0273 24.1602 96.623 25.8887 96.623 28.3145V38H92.4922V18.5586H95.7266L96.3066 21.1074H96.5176C97.1035 20.1816 97.9355 19.4668 99.0137 18.9629C100.092 18.459 101.287 18.207 102.6 18.207C107.264 18.207 109.596 20.5801 109.596 25.3262V38ZM123.043 35.0469C124.777 35.0469 126.02 34.5488 126.77 33.5527C127.531 32.5449 127.912 31.0273 127.912 29V28.3496C127.912 25.9473 127.52 24.2188 126.734 23.1641C125.961 22.1094 124.707 21.582 122.973 21.582C121.496 21.582 120.371 22.168 119.598 23.3398C118.824 24.5117 118.438 26.1934 118.438 28.3848C118.438 32.8262 119.973 35.0469 123.043 35.0469ZM121.865 38.3516C119.463 38.3516 117.582 37.4727 116.223 35.7148C114.863 33.9453 114.184 31.4785 114.184 28.3145C114.184 25.1504 114.875 22.6777 116.258 20.8965C117.641 19.1035 119.545 18.207 121.971 18.207C123.189 18.207 124.279 18.4355 125.24 18.8926C126.213 19.3379 127.08 20.0762 127.842 21.1074H127.982L128.439 18.5586H131.867V46.6484H127.719V38.4043C127.719 37.8887 127.742 37.3438 127.789 36.7695C127.836 36.1953 127.877 35.7559 127.912 35.4512H127.684C126.465 37.3848 124.525 38.3516 121.865 38.3516ZM147.635 38.3516C145.174 38.3516 143.264 37.4668 141.904 35.6973H141.658C141.822 37.3379 141.904 38.334 141.904 38.6855V46.6484H137.773V18.5586H141.113C141.207 18.9219 141.4 19.7891 141.693 21.1602H141.904C143.193 19.1914 145.127 18.207 147.705 18.207C150.131 18.207 152.018 19.0859 153.365 20.8438C154.725 22.6016 155.404 25.0684 155.404 28.2441C155.404 31.4199 154.713 33.8984 153.33 35.6797C151.959 37.4609 150.061 38.3516 147.635 38.3516ZM146.633 21.582C144.992 21.582 143.791 22.0625 143.029 23.0234C142.279 23.9844 141.904 25.5195 141.904 27.6289V28.2441C141.904 30.6113 142.279 32.3281 143.029 33.3945C143.779 34.4492 145.004 34.9766 146.703 34.9766C148.133 34.9766 149.234 34.3906 150.008 33.2188C150.781 32.0469 151.168 30.377 151.168 28.209C151.168 26.0293 150.781 24.3828 150.008 23.2695C149.246 22.1445 148.121 21.582 146.633 21.582ZM172.367 38L171.541 35.293H171.4C170.463 36.4766 169.52 37.2852 168.57 37.7188C167.621 38.1406 166.402 38.3516 164.914 38.3516C163.004 38.3516 161.51 37.8359 160.432 36.8047C159.365 35.7734 158.832 34.3145 158.832 32.4277C158.832 30.4238 159.576 28.9121 161.064 27.8926C162.553 26.873 164.82 26.3164 167.867 26.2227L171.225 26.1172V25.0801C171.225 23.8379 170.932 22.9121 170.346 22.3027C169.771 21.6816 168.875 21.3711 167.656 21.3711C166.66 21.3711 165.705 21.5176 164.791 21.8105C163.877 22.1035 162.998 22.4492 162.154 22.8477L160.818 19.8945C161.873 19.3438 163.027 18.9277 164.281 18.6465C165.535 18.3535 166.719 18.207 167.832 18.207C170.305 18.207 172.168 18.7461 173.422 19.8242C174.688 20.9023 175.32 22.5957 175.32 24.9043V38H172.367ZM166.215 35.1875C167.715 35.1875 168.916 34.7715 169.818 33.9395C170.732 33.0957 171.189 31.918 171.189 30.4062V28.7188L168.693 28.8242C166.748 28.8945 165.33 29.2227 164.439 29.8086C163.561 30.3828 163.121 31.2676 163.121 32.4629C163.121 33.3301 163.379 34.0039 163.895 34.4844C164.41 34.9531 165.184 35.1875 166.215 35.1875ZM178.133 18.5586H182.633L186.588 29.5801C187.186 31.1504 187.584 32.627 187.783 34.0098H187.924C188.029 33.3652 188.223 32.5859 188.504 31.6719C188.785 30.7461 190.273 26.375 192.969 18.5586H197.434L189.119 40.584C187.607 44.627 185.088 46.6484 181.561 46.6484C180.646 46.6484 179.756 46.5488 178.889 46.3496V43.0801C179.51 43.2207 180.219 43.291 181.016 43.291C183.008 43.291 184.408 42.1367 185.217 39.8281L185.938 38L178.133 18.5586Z" fill="white"/>
</g>
<defs>
<clipPath id="clip0_19_158">
<rect width="198" height="49" fill="white"/>
</clipPath>
</defs>
</svg>
